<svg width="32" height="32" viewBox="0 0 32 32" fill="none" xmlns="http://www.w3.org/2000/svg">
  <!-- Background circle -->
  <circle cx="16" cy="16" r="15" fill="#006600" stroke="#FFD700" stroke-width="2"/>
  
  <!-- Book icon -->
  <path d="M8 10h16v12H8z" fill="#FFFFFF" opacity="0.9"/>
  <path d="M8 10h8v12H8z" fill="#FF0000" opacity="0.8"/>
  <path d="M16 10h8v12h-8z" fill="#006600" opacity="0.8"/>
  
  <!-- Text lines representing Portuguese text -->
  <line x1="10" y1="13" x2="14" y2="13" stroke="#FFFFFF" stroke-width="1"/>
  <line x1="18" y1="13" x2="22" y2="13" stroke="#FFFFFF" stroke-width="1"/>
  <line x1="10" y1="16" x2="14" y2="16" stroke="#FFFFFF" stroke-width="1"/>
  <line x1="18" y1="16" x2="22" y2="16" stroke="#FFFFFF" stroke-width="1"/>
  <line x1="10" y1="19" x2="14" y2="19" stroke="#FFFFFF" stroke-width="1"/>
  <line x1="18" y1="19" x2="22" y2="19" stroke="#FFFFFF" stroke-width="1"/>
  
  <!-- Small star representing learning achievement -->
  <polygon points="16,6 17,9 20,9 17.5,11 18.5,14 16,12 13.5,14 14.5,11 12,9 15,9" fill="#FFD700"/>
</svg>